<svg width="28" height="29" viewBox="0 0 28 29" fill="none" xmlns="http://www.w3.org/2000/svg">
<path d="M23.6041 10.1227C22.8224 9.2594 21.6441 8.75773 20.0107 8.58273V7.69607C20.0107 6.09773 19.3341 4.55773 18.1441 3.4844C16.9424 2.38773 15.3791 1.8744 13.7574 2.02607C10.9691 2.2944 8.62408 4.9894 8.62408 7.90606V8.58273C6.99074 8.75773 5.81241 9.2594 5.03075 10.1227C3.89908 11.3827 3.93408 13.0627 4.06241 14.2294L4.87908 20.7277C5.12408 23.0027 6.04574 25.3361 11.0624 25.3361H17.5724C22.5891 25.3361 23.5107 23.0027 23.7557 20.7394L24.5724 14.2177C24.7007 13.0627 24.7241 11.3827 23.6041 10.1227ZM13.9207 3.64773C15.0874 3.54273 16.1957 3.9044 17.0591 4.68607C17.9107 5.45607 18.3891 6.55273 18.3891 7.69607V8.51273H10.2457V7.90606C10.2457 5.8294 11.9607 3.8344 13.9207 3.64773ZM10.1407 15.0111H10.1291C9.48741 15.0111 8.96241 14.4861 8.96241 13.8444C8.96241 13.2027 9.48741 12.6777 10.1291 12.6777C10.7824 12.6777 11.3074 13.2027 11.3074 13.8444C11.3074 14.4861 10.7824 15.0111 10.1407 15.0111ZM18.3074 15.0111H18.2957C17.6541 15.0111 17.1291 14.4861 17.1291 13.8444C17.1291 13.2027 17.6541 12.6777 18.2957 12.6777C18.9491 12.6777 19.4741 13.2027 19.4741 13.8444C19.4741 14.4861 18.9491 15.0111 18.3074 15.0111Z" fill="white"/>
<circle cx="18" cy="14.5" r="2" fill="white"/>
<circle cx="10" cy="14.5" r="2" fill="white"/>
</svg>
